<?xml version="1.0" encoding="utf-8"?>
<!-- Generator: Adobe Illustrator 27.5.0, SVG Export Plug-In . SVG Version: 6.00 Build 0)  -->
<svg version="1.1" xmlns="http://www.w3.org/2000/svg" xmlns:xlink="http://www.w3.org/1999/xlink" x="0px" y="0px"
	 viewBox="0 0 500 500" style="enable-background:new 0 0 500 500;" xml:space="preserve">
<g id="Background_Complete">
	<g>
		<rect y="382.398" style="fill:#EBEBEB;" width="500" height="0.25"/>
		<rect x="416.779" y="398.494" style="fill:#EBEBEB;" width="33.122" height="0.25"/>
		<rect x="260.335" y="395.361" style="fill:#EBEBEB;" width="12.887" height="0.25"/>
		<rect x="322.527" y="396.417" style="fill:#EBEBEB;" width="27.14" height="0.25"/>
		<rect x="359.667" y="389.208" style="fill:#EBEBEB;" width="56.111" height="0.25"/>
		<rect x="52.459" y="400.778" style="fill:#EBEBEB;" width="26.527" height="0.25"/>
		<rect x="87.889" y="400.778" style="fill:#EBEBEB;" width="23" height="0.25"/>
		<rect x="131" y="395.236" style="fill:#EBEBEB;" width="60.814" height="0.25"/>
		<path style="fill:#EBEBEB;" d="M237.014,337.8H43.915c-3.147,0-5.708-2.561-5.708-5.708V60.66c0-3.147,2.561-5.708,5.708-5.708
			h193.099c3.146,0,5.707,2.561,5.707,5.708v271.432C242.721,335.239,240.16,337.8,237.014,337.8z M43.915,55.203
			c-3.01,0-5.458,2.448-5.458,5.458v271.432c0,3.01,2.448,5.458,5.458,5.458h193.099c3.009,0,5.457-2.448,5.457-5.458V60.66
			c0-3.009-2.448-5.458-5.457-5.458H43.915z"/>
		<path style="fill:#EBEBEB;" d="M453.31,337.8H260.212c-3.147,0-5.707-2.561-5.707-5.708V60.66c0-3.147,2.561-5.708,5.707-5.708
			H453.31c3.148,0,5.708,2.561,5.708,5.708v271.432C459.019,335.239,456.458,337.8,453.31,337.8z M260.212,55.203
			c-3.009,0-5.457,2.448-5.457,5.458v271.432c0,3.01,2.448,5.458,5.457,5.458H453.31c3.01,0,5.458-2.448,5.458-5.458V60.66
			c0-3.009-2.448-5.458-5.458-5.458H260.212z"/>
	</g>
	<g>
		<path style="fill:#F0F0F0;" d="M64.667,323L64.667,323c-2.643,0-4.806-2.163-4.806-4.806V97.583c0-2.643,2.163-4.806,4.806-4.806
			l0,0c2.643,0,4.806,2.162,4.806,4.806v220.611C69.472,320.837,67.31,323,64.667,323z"/>
		<path style="fill:#F0F0F0;" d="M84.667,323L84.667,323c-2.643,0-4.806-2.163-4.806-4.806V97.583c0-2.643,2.162-4.806,4.806-4.806
			l0,0c2.643,0,4.806,2.162,4.806,4.806v220.611C89.472,320.837,87.31,323,84.667,323z"/>
		<path style="fill:#F0F0F0;" d="M415.333,323L415.333,323c-2.643,0-4.806-2.163-4.806-4.806V97.583
			c0-2.643,2.162-4.806,4.806-4.806l0,0c2.643,0,4.806,2.162,4.806,4.806v220.611C420.139,320.837,417.976,323,415.333,323z"/>
		<path style="fill:#F0F0F0;" d="M435.333,323L435.333,323c-2.643,0-4.806-2.163-4.806-4.806V97.583
			c0-2.643,2.162-4.806,4.806-4.806l0,0c2.643,0,4.806,2.162,4.806,4.806v220.611C440.139,320.837,437.976,323,435.333,323z"/>
		<g>
			<path style="fill:#F0F0F0;" d="M81.595,375.058h-0.617c-0.614,0-1.117-0.503-1.117-1.117v-16.767
				c0-0.614,0.503-1.117,1.117-1.117h0.617c0.614,0,1.117,0.503,1.117,1.117v16.767C82.711,374.555,82.209,375.058,81.595,375.058z"
				/>
			<path style="fill:#F0F0F0;" d="M86.481,375.058h-0.617c-0.614,0-1.117-0.503-1.117-1.117v-16.767
				c0-0.614,0.503-1.117,1.117-1.117h0.617c0.614,0,1.117,0.503,1.117,1.117v16.767C87.597,374.555,87.095,375.058,86.481,375.058z"
				/>
			<path style="fill:#F0F0F0;" d="M91.367,375.058H90.75c-0.614,0-1.117-0.503-1.117-1.117v-16.767c0-0.614,0.502-1.117,1.117-1.117
				h0.617c0.614,0,1.117,0.503,1.117,1.117v16.767C92.483,374.555,91.981,375.058,91.367,375.058z"/>
			<path style="fill:#F0F0F0;" d="M96.253,375.058h-0.617c-0.614,0-1.117-0.503-1.117-1.117v-16.767
				c0-0.614,0.502-1.117,1.117-1.117h0.617c0.614,0,1.117,0.503,1.117,1.117v16.767C97.369,374.555,96.867,375.058,96.253,375.058z"
				/>
			<path style="fill:#F0F0F0;" d="M101.139,375.058h-0.617c-0.614,0-1.117-0.503-1.117-1.117v-16.767
				c0-0.614,0.502-1.117,1.117-1.117h0.617c0.614,0,1.117,0.503,1.117,1.117v16.767
				C102.256,374.555,101.753,375.058,101.139,375.058z"/>
			<path style="fill:#F0F0F0;" d="M106.025,375.058h-0.617c-0.614,0-1.117-0.503-1.117-1.117v-16.767
				c0-0.614,0.503-1.117,1.117-1.117h0.617c0.614,0,1.117,0.503,1.117,1.117v16.767
				C107.142,374.555,106.639,375.058,106.025,375.058z"/>
			<path style="fill:#F0F0F0;" d="M110.911,375.058h-0.617c-0.614,0-1.117-0.503-1.117-1.117v-16.767
				c0-0.614,0.503-1.117,1.117-1.117h0.617c0.614,0,1.117,0.503,1.117,1.117v16.767
				C112.028,374.555,111.525,375.058,110.911,375.058z"/>
		</g>
		<g>
			<path style="fill:#F0F0F0;" d="M215.268,375.058h-0.617c-0.614,0-1.117-0.503-1.117-1.117v-16.767
				c0-0.614,0.502-1.117,1.117-1.117h0.617c0.614,0,1.117,0.503,1.117,1.117v16.767
				C216.385,374.555,215.882,375.058,215.268,375.058z"/>
			<path style="fill:#F0F0F0;" d="M220.154,375.058h-0.617c-0.614,0-1.117-0.503-1.117-1.117v-16.767
				c0-0.614,0.503-1.117,1.117-1.117h0.617c0.614,0,1.117,0.503,1.117,1.117v16.767
				C221.271,374.555,220.768,375.058,220.154,375.058z"/>
			<path style="fill:#F0F0F0;" d="M225.04,375.058h-0.617c-0.614,0-1.117-0.503-1.117-1.117v-16.767
				c0-0.614,0.503-1.117,1.117-1.117h0.617c0.614,0,1.117,0.503,1.117,1.117v16.767C226.157,374.555,225.654,375.058,225.04,375.058
				z"/>
			<path style="fill:#F0F0F0;" d="M229.926,375.058h-0.617c-0.614,0-1.117-0.503-1.117-1.117v-16.767
				c0-0.614,0.503-1.117,1.117-1.117h0.617c0.614,0,1.117,0.503,1.117,1.117v16.767
				C231.043,374.555,230.541,375.058,229.926,375.058z"/>
			<path style="fill:#F0F0F0;" d="M234.813,375.058h-0.617c-0.614,0-1.117-0.503-1.117-1.117v-16.767
				c0-0.614,0.503-1.117,1.117-1.117h0.617c0.614,0,1.117,0.503,1.117,1.117v16.767
				C235.929,374.555,235.427,375.058,234.813,375.058z"/>
			<path style="fill:#F0F0F0;" d="M239.699,375.058h-0.617c-0.614,0-1.117-0.503-1.117-1.117v-16.767
				c0-0.614,0.503-1.117,1.117-1.117h0.617c0.614,0,1.117,0.503,1.117,1.117v16.767
				C240.815,374.555,240.313,375.058,239.699,375.058z"/>
			<path style="fill:#F0F0F0;" d="M244.585,375.058h-0.617c-0.614,0-1.117-0.503-1.117-1.117v-16.767
				c0-0.614,0.503-1.117,1.117-1.117h0.617c0.614,0,1.117,0.503,1.117,1.117v16.767
				C245.701,374.555,245.199,375.058,244.585,375.058z"/>
		</g>
		<g>
			<path style="fill:#EBEBEB;" d="M293.381,367.866c0-8.026-2.304-14.533-5.146-14.533c-2.842,0-5.146,6.507-5.146,14.533
				s2.304,14.533,5.146,14.533C291.078,382.398,293.381,375.892,293.381,367.866z"/>
			<path style="fill:#F5F5F5;" d="M448.161,353.333H288.235c2.842,0,5.146,6.506,5.146,14.533c0,8.026-2.304,14.533-5.146,14.533
				h159.925c2.842,0,5.146-6.507,5.146-14.533C453.307,359.84,451.003,353.333,448.161,353.333z"/>
		</g>
	</g>
</g>
<g id="Background_Simple" style="display:none;">
	<g style="display:inline;">
		<path style="fill:#407BFF;" d="M390.57,311.457c134.421-56.948-55.543-103.632-83.428-138.839
			c-20.008-25.26,14.76-83.564-19.788-113.487c-36.306-31.446-110.381-27.469-155.549-6.726
			C63.557,83.747,11.624,212.822,84.743,254.556c55.453,31.651,129.058-22.64,189.309,1.89
			C311.932,271.868,317.389,342.458,390.57,311.457z"/>
		<path style="opacity:0.9;fill:#FFFFFF;" d="M390.57,311.457c134.421-56.948-55.543-103.632-83.428-138.839
			c-20.008-25.26,14.76-83.564-19.788-113.487c-36.306-31.446-110.381-27.469-155.549-6.726
			C63.557,83.747,11.624,212.822,84.743,254.556c55.453,31.651,129.058-22.64,189.309,1.89
			C311.932,271.868,317.389,342.458,390.57,311.457z"/>
	</g>
</g>
<g id="Shadow_1_">
	<ellipse id="_x3C_Path_x3E__216_" style="fill:#F5F5F5;" cx="250" cy="416.238" rx="193.889" ry="11.323"/>
</g>
<g id="Window">
	<g>
		<g>
			<rect x="104.444" y="87.666" style="fill:#407BFF;" width="1" height="26.556"/>
			<rect x="104.444" y="121.334" style="fill:#407BFF;" width="1" height="8.667"/>
			<path style="fill:#407BFF;" d="M383.056,225.359H119.944c-6.6,0-12-5.4-12-12V76.778c0-6.6,5.4-12,12-12h263.111
				c6.6,0,12,5.4,12,12v136.581C395.056,219.959,389.655,225.359,383.056,225.359z"/>
			<path style="fill:#263238;" d="M392.254,225.359H110.746c-1.541,0-2.802,1.261-2.802,2.801v3.149
				c0,1.541,1.261,2.801,2.802,2.801h281.508c1.541,0,2.802-1.261,2.802-2.801v-3.149
				C395.056,226.62,393.795,225.359,392.254,225.359z"/>
			<g>
				<path style="fill:#FFFFFF;" d="M119.945,222.359c-4.962,0-9-4.038-9-9V76.778c0-4.962,4.038-9,9-9h263.111c4.962,0,9,4.038,9,9
					v136.581c0,4.962-4.038,9-9,9H119.945z"/>
				<path style="opacity:0.1;fill:#407BFF;" d="M119.945,222.359c-4.962,0-9-4.038-9-9V76.778c0-4.962,4.038-9,9-9h263.111
					c4.962,0,9,4.038,9,9v136.581c0,4.962-4.038,9-9,9H119.945z"/>
				<path style="fill:#FFFFFF;" d="M158.243,113.737c1.637-3.141,5.896-5.885,10.739-6.979c3.295-4.119,9.91-7.401,16.779-7.936
					c2.032-0.158,3.897-0.053,5.557,0.258c4.745-5.045,13.132-8.948,21.817-9.624c8.491-0.661,14.935,1.945,17.18,6.278
					c1.431-0.353,2.902-0.606,4.386-0.721c6.539-0.509,11.441,1.613,12.853,5.076c2.121-0.955,4.521-1.604,6.963-1.795
					c6.648-0.517,11.073,2.545,9.883,6.841c-0.272,0.983-0.826,1.943-1.581,2.849c9.5,0.871,17.225,3.241,12.473,6.159l0,0l0,0
					l-132.086,10.281h0C139.661,118.23,149.66,115.302,158.243,113.737z"/>
				
					<ellipse transform="matrix(0.1602 -0.9871 0.9871 0.1602 137.783 419.6783)" style="opacity:0.3;fill:#407BFF;" cx="315.528" cy="128.867" rx="11.979" ry="11.979"/>
				<path style="fill:#FFFFFF;" d="M306.723,142.916c-0.058-0.414-0.037-0.854,0.091-1.317c0.795-2.869,5.038-5.474,9.478-5.82
					c0.953-0.074,1.832-0.032,2.626,0.098c2.415-2.533,6.639-4.489,11.014-4.829c2.333-0.182,4.359,0.126,5.912,0.792
					c2.862-2.257,6.988-3.91,11.236-4.241c6.966-0.542,11.602,2.667,10.356,7.168c-0.026,0.092-0.067,0.182-0.097,0.273
					c0.108-0.012,0.216-0.027,0.324-0.035c3.371-0.262,5.615,1.291,5.012,3.469c-0.194,0.7-0.661,1.379-1.314,1.987
					c3.539,0.574,5.815,1.601,3.839,2.814l0,0l0,0l-66.98,5.214l0,0C296.299,145.134,302.216,143.668,306.723,142.916z"/>
			</g>
			<polygon style="opacity:0.6;fill:#FFFFFF;" points="282.223,222.359 239.079,222.359 283.956,67.778 327.1,67.778 			"/>
			<polygon style="opacity:0.6;fill:#FFFFFF;" points="232.52,222.359 215.569,222.359 260.446,67.778 277.397,67.778 			"/>
			<polygon style="opacity:0.6;fill:#FFFFFF;" points="152.187,222.359 135.235,222.359 180.113,67.778 197.064,67.778 			"/>
			
				<rect x="248.278" y="-35.167" transform="matrix(-1.836970e-16 1 -1 -1.836970e-16 358.3888 -144.611)" style="fill:#407BFF;" width="6.444" height="284.111"/>
			<path style="opacity:0.2;fill:#407BFF;" d="M392.055,176.896v36.462c0,4.962-4.038,9-9,9H119.945c-4.962,0-9-4.038-9-9v-33.067
				c20.111-7.002,30.571,20.832,107,8.638c64.777-10.335,82.569-40.003,118.603-15.239
				C357.056,187.785,392.055,176.896,392.055,176.896z"/>
		</g>
		<g>
			<path style="fill:#FFFFFF;" d="M382.993,345.778H117.007c-6.634,0-12.063-5.428-12.063-12.063V289.84
				c0-6.634,5.428-12.063,12.063-12.063h265.986c6.634,0,12.063,5.428,12.063,12.063v43.875
				C395.056,340.35,389.627,345.778,382.993,345.778z"/>
		</g>
		<path style="opacity:0.2;fill:#407BFF;" d="M382.993,345.778H117.007c-6.634,0-12.063-5.428-12.063-12.063V289.84
			c0-6.634,5.428-12.063,12.063-12.063h265.986c6.634,0,12.063,5.428,12.063,12.063v43.875
			C395.056,340.35,389.627,345.778,382.993,345.778z"/>
	</g>
</g>
<g id="Character_1_">
	<g>
		<g>
			<polygon style="fill:#407BFF;" points="341.946,413.116 335.613,413.116 323.72,324.667 330.054,324.667 			"/>
			<polygon style="fill:#407BFF;" points="227.482,413.116 233.774,413.116 246.563,318 240.271,318 			"/>
			<g>
				<path style="fill:#407BFF;" d="M237.915,324.728L237.915,324.728c1.818,1.406,4.023,2.224,6.318,2.344l78.203,4.096
					c11.818,0.619,21.869-8.527,22.363-20.351l3.914-93.554c0.496-11.866-8.989-21.757-20.866-21.757h-24.86
					c-8.211,0-14.945,6.508-15.224,14.715l-2.964,87.1l-41.925,7.348C233.21,306.362,230.153,318.726,237.915,324.728z"/>
				<path style="opacity:0.4;fill:#FFFFFF;" d="M237.915,324.728L237.915,324.728c1.818,1.406,4.023,2.224,6.318,2.344l78.203,4.096
					c11.818,0.619,21.869-8.527,22.363-20.351l3.914-93.554c0.496-11.866-8.989-21.757-20.866-21.757h-24.86
					c-8.211,0-14.945,6.508-15.224,14.715l-2.964,87.1l-41.925,7.348C233.21,306.362,230.153,318.726,237.915,324.728z"/>
			</g>
		</g>
		<g>
			<g>
				<path style="fill:#263238;" d="M233.861,149.443c-7.746,12.506-10.982,25.818-8.964,41.562
					c2.018,15.743,20.315,23.13,36.081,18.994c15.765-4.136,26.56-14.059,25.439-28.059c-1.121-14-13.073-20.607-13.203-31.052
					c-0.13-10.445-11.13-14.667-15.353-12C252.638,131.998,239.795,139.861,233.861,149.443z"/>
				<path style="fill:#263238;" d="M264.408,211.264c-0.207,0-0.402-0.13-0.473-0.338c-0.089-0.261,0.05-0.545,0.311-0.635
					c16.356-5.61,24.942-16.567,22.967-29.31c-1.105-7.13-4.904-11.986-8.578-16.682c-3.313-4.234-6.442-8.234-6.884-13.345
					c-0.024-0.275,0.18-0.517,0.455-0.541c0.277-0.028,0.518,0.18,0.541,0.455c0.417,4.815,3.457,8.701,6.676,12.815
					c3.578,4.573,7.633,9.757,8.778,17.145c2.056,13.261-6.778,24.629-23.631,30.41
					C264.517,211.255,264.462,211.264,264.408,211.264z"/>
				<path style="fill:#FFB573;" d="M264.75,220.432c-1.703,0.598-3.197,1.077-4.801,1.548c-1.577,0.477-3.167,0.892-4.762,1.305
					c-3.196,0.797-6.426,1.512-9.73,2.047c-3.302,0.554-6.665,0.968-10.159,1.128c-3.495,0.174-7.11,0.109-11.075-0.63l-0.468-0.087
					c-2.815-0.525-4.866-2.8-5.25-5.486c-0.385-2.725-0.143-4.857,0.205-6.81c0.36-1.948,0.871-3.684,1.432-5.354
					c1.118-3.335,2.54-6.341,4.018-9.266c1.512-2.907,3.133-5.694,4.861-8.4c1.747-2.71,3.524-5.306,5.559-7.889
					c1.308-1.661,3.715-1.947,5.376-0.639c1.358,1.07,1.797,2.874,1.197,4.404l-0.044,0.11c-1.091,2.773-2.253,5.642-3.315,8.46
					c-1.07,2.828-2.107,5.647-3.014,8.452c-0.932,2.787-1.718,5.591-2.276,8.228c-0.277,1.314-0.48,2.604-0.538,3.73
					c-0.066,1.112,0.003,2.116,0.147,2.454l-5.717-5.572c2.26,0.197,4.976,0.04,7.74-0.283c2.774-0.342,5.637-0.863,8.513-1.468
					c2.874-0.63,5.776-1.318,8.667-2.095l4.333-1.188l4.212-1.224l0.216-0.063c4.064-1.181,8.315,1.157,9.496,5.22
					C270.71,214.986,268.553,219.09,264.75,220.432z"/>
				<path style="fill:#FFB573;" d="M234.435,170.842l-1.809,2.758c-0.68,1.037-0.817,2.339-0.368,3.495l2.101,5.402
					c0.84,2.16,2.673,3.779,4.921,4.345l1.391,0.35c3.313-4.369,3.674-11.531,3.674-11.531l0.329-2.03
					c0.292-1.808-0.825-3.438-2.569-3.744l-4.014-0.705C236.704,168.939,235.25,169.599,234.435,170.842z"/>
				<path style="opacity:0.2;" d="M242.103,169.892l-4.01-0.71c-0.91-0.16-1.85,0.07-2.62,0.6c1.19,5.4,3.77,10.72,6.69,14.88
					c1.94-4.15,2.18-9,2.18-9l0.33-2.03C244.963,171.822,243.853,170.191,242.103,169.892z"/>
				<g>
					<path style="fill:#263238;" d="M173.641,412.48c9.324,0.933,15.189,1.375,20.446,1.723c4.502,0.289,5.52,0.957,9.133,1.237
						c3.019,0.237,3.195-2.658,2.598-6.068c-0.298-1.712-0.662-5.306-1.033-8.061l-13.561-2.359
						c-2.29,3.477-11.769,7.814-17.094,7.993C169.046,407.117,169.923,412.108,173.641,412.48z"/>
					<path style="fill:#263238;" d="M205.328,287.249c18.988-14.932,70.086-18.917,70.086-18.917l20.368-3.3
						c0,0,11.055,22.3,4.055,38.633c-5.964,13.915-42.21,9.596-72.355,7.966c4.515,16.702-23.219,89.113-23.219,89.113
						c-4.323,1.352-11.101-0.814-13.297-2.089c1.397-23.748,7.718-55.729,7.733-95.262
						C198.702,297.167,200.434,291.097,205.328,287.249z"/>
					<path d="M236.24,312.15l-7.02-17.71c-2.87,1.69-10.27,21.2-3.36,37.68c1.89-8.93,2.73-16.39,1.62-20.49
						C230.36,311.79,233.29,311.97,236.24,312.15z"/>
					<path style="fill:#407BFF;" d="M189.596,389.429c-0.555,2.234-0.025,6.311-1.079,9.212c-0.38,1.046-0.276,2.571,0.464,2.532
						c5.353-0.284,13.281,2.641,16.128,2.329c0.545-0.06,1.046-0.634,1.26-1.429l2.298-8.511c0.314-1.164-0.112-2.327-0.891-2.43
						l-16.559-3.257C190.556,387.745,189.846,388.421,189.596,389.429z"/>
				</g>
				<path style="fill:#407BFF;" d="M272.905,196.306c6.761,25.489,15.054,35.728-27.721,34.759
					c-5.351-4.336-6.826-20.815-6.826-20.815C252.667,205.198,264.546,198.072,272.905,196.306z"/>
				<path style="fill:#407BFF;" d="M258.439,231.236c2.492,4.307,3.96,7.851,10.806,17.574c4.853,5.885,1.388,17.383,3.351,24.312
					c11.564,3.359,50.849-1.956,52.821-8.09c2.555-1.837-0.348-32.747-10.445-64.504c-4.114-12.941-13.555-18-22.775-14.775
					c-1.901,0.665-3.705,1.861-5.615,2.922c-7.423,4.124-13.474,7.56-19.516,12.113c-2.002,1.509-4.035,3.14-5.955,4.737
					C254.18,211.286,253.972,223.518,258.439,231.236z"/>
				<path style="opacity:0.2;" d="M281.623,231.166c10.873,3.673,21.437,3.782,24.887,3.026
					C297.117,238.255,289.654,236.34,281.623,231.166z"/>
				<path style="fill:#FFB573;" d="M271.574,167.55c2.198,7.334,7.253,20.134,13.935,21.791c0,0-6.502,2.799-14.283,18.446
					c-6.911-2.975-5.233-6.332-5.233-6.332c6.089-6.095,3.071-11.419-0.813-15.766L271.574,167.55z"/>
				<path style="fill:#FFFFFF;" d="M272.905,204.566c4.527-1.99,9.728,3.484,9.728,3.484s5.604-13.266,5.677-20.214
					c-1.965,0.143-5.086-0.052-5.086-0.052S273.843,200.659,272.905,204.566z"/>
				<path style="fill:#FFFFFF;" d="M268.537,206.351c0,0-3.674,1.955-3.356,8.011c-6.236-9.5,0-15.841,0-15.841
					s1.708-2.215,4.091-2.488C267.805,200.751,268.537,206.351,268.537,206.351z"/>
				<path style="opacity:0.2;" d="M268.97,174.948l-3.787,10.73c0.923,1.027,1.79,2.11,2.494,3.251
					c2.464-2.065,4.535-7.418,3.289-10.524C270.345,176.856,269.553,175.488,268.97,174.948z"/>
				<path style="fill:#FFB573;" d="M265.357,152.897c6.108,10.494,8.906,14.796,7.498,23.579
					c-2.118,13.212-15.743,18.969-24.717,10.645c-8.077-7.493-16.709-23.395-9.983-34.418
					C244.782,141.844,259.249,142.403,265.357,152.897z"/>
				<path style="fill:#263238;" d="M255.855,142.598c7.84,8.497-12.701,15.101-19.333,23.002c-1.258,1.498-3.694,0.634-3.756-1.321
					C232.43,153.814,241.95,140.914,255.855,142.598z"/>
				<path style="fill:#263238;" d="M255.392,143.581c-4.393,7.083,1.151,16.401,13.879,16.992
					C272.746,147.477,261.701,139.748,255.392,143.581z"/>
				<path style="fill:#263238;" d="M264.363,160.529c-6.738,0.001-9.345-3.634-10.208-5.381c-1.591-3.222-1.035-7.064,1.353-9.343
					l0.69,0.724c-2.042,1.949-2.524,5.388-1.148,8.177c0.9,1.822,3.926,5.913,12.611,4.551l0.154,0.988
					C266.561,160.441,265.411,160.529,264.363,160.529z"/>
				<path style="fill:#263238;" d="M253.403,166.412c0.551,0.859,0.575,1.868,0.055,2.255c-0.52,0.387-1.388,0.004-1.939-0.854
					c-0.551-0.859-0.575-1.868-0.055-2.255C251.984,165.171,252.852,165.553,253.403,166.412z"/>
				<path style="fill:#263238;" d="M243.041,173.632c0.551,0.859,0.575,1.868,0.055,2.255c-0.52,0.387-1.389,0.004-1.939-0.854
					c-0.551-0.859-0.575-1.868-0.055-2.255C241.622,172.39,242.49,172.773,243.041,173.632z"/>
				<path style="fill:#263238;" d="M241.362,172.654l-2.293,0.827C239.069,173.481,241.083,174.362,241.362,172.654z"/>
				<path style="fill:#ED893E;" d="M247.344,173.219c0,0,1.02,4.7,0.677,7.589c1.729,0.277,3.206-1.535,3.206-1.535L247.344,173.219
					z"/>
				<path style="fill:#263238;" d="M256.662,174.591c0.425-0.314,0.902-0.608,1.436-0.872c0.144-0.071,0.312-0.005,0.375,0.149
					c0.062,0.152,0,0.331-0.148,0.406c-3.902,1.921-4.54,5.717-4.546,5.755c-0.026,0.168-0.173,0.284-0.328,0.26
					c-0.155-0.024-0.26-0.179-0.234-0.345C253.24,179.795,253.752,176.739,256.662,174.591z"/>
				<path style="fill:#FFB573;" d="M274.051,158.806c0.274,2.849-0.714,5.463-2.138,7.131c-2.142,2.51-5.081,0.721-6.05-2.525
					c-0.872-2.922-0.809-7.749,2.094-9.042C270.817,153.097,273.738,155.549,274.051,158.806z"/>
				<path style="fill:#263238;" d="M248.645,161.389c0.129-0.086,0.289-0.117,0.445-0.074c2.445,0.684,4.034-0.813,4.053-0.831
					c0.235-0.223,0.595-0.21,0.804,0.04c0.207,0.249,0.184,0.636-0.053,0.864c-0.083,0.079-2.076,1.96-5.11,1.111
					c-0.302-0.085-0.479-0.419-0.395-0.746C248.429,161.597,248.523,161.469,248.645,161.389z"/>
				<path style="fill:#263238;" d="M240.073,168.965c0.127-0.075,0.277-0.102,0.424-0.062c0.303,0.081,0.477,0.412,0.387,0.737
					c-0.897,3.265-3.42,4.217-3.529,4.256c-0.303,0.11-0.622-0.058-0.713-0.375c-0.091-0.317,0.081-0.663,0.383-0.774
					c0.099-0.036,2.047-0.803,2.76-3.4C239.832,169.179,239.939,169.045,240.073,168.965z"/>
				<path style="fill:#263238;" d="M251.724,165.434l-2.293,0.827C249.431,166.261,251.445,167.143,251.724,165.434z"/>
				<path style="fill:#FFB573;" d="M261.697,270.439l2.068-3.157c0.778-1.187,2.081-1.926,3.5-1.982l6.628-0.262
					c2.65-0.105,5.186,1.08,6.806,3.179l1.003,1.3c-3.072,5.471-10.422,9.12-10.422,9.12l-1.98,1.273
					c-1.763,1.132-3.985,0.704-5.102-0.986l-2.572-3.891C260.736,273.69,260.764,271.862,261.697,270.439z"/>
				<path style="fill:#FFB573;" d="M316.288,204.981c0.199,0.959,0.344,1.713,0.493,2.544c0.148,0.814,0.265,1.622,0.391,2.43
					c0.25,1.613,0.427,3.227,0.607,4.84c0.326,3.228,0.541,6.466,0.599,9.72c0.046,1.624,0.031,3.257,0.022,4.888
					c-0.061,1.636-0.098,3.266-0.221,4.907c-0.163,3.273-0.612,6.565-1.118,9.844l-0.065,0.419c-0.053,0.343-0.15,0.697-0.268,1.009
					c-0.713,1.856-1.578,3.132-2.398,4.205c-0.829,1.074-1.661,1.961-2.497,2.768c-1.666,1.608-3.324,2.932-4.988,4.171
					c-3.322,2.467-6.714,4.505-10.115,6.457c-3.419,1.916-6.868,3.687-10.364,5.337c-3.512,1.643-7,3.187-10.671,4.577
					c-1.973,0.747-4.177-0.247-4.924-2.219c-0.635-1.679-0.01-3.526,1.406-4.499l0.061-0.041c3.041-2.09,6.171-4.204,9.21-6.335
					c3.05-2.133,6.071-4.278,8.99-6.485c2.928-2.179,5.757-4.458,8.31-6.751c1.268-1.145,2.456-2.322,3.403-3.446
					c0.468-0.56,0.88-1.102,1.168-1.553c0.299-0.447,0.405-0.815,0.342-0.737l-0.333,1.428c0.161-2.847,0.271-5.698,0.233-8.589
					c-0.036-2.884-0.145-5.783-0.348-8.689c-0.215-2.903-0.454-5.814-0.801-8.712c-0.162-1.45-0.359-2.894-0.544-4.332l-0.304-2.14
					l-0.303-2.009l-0.046-0.307c-0.631-4.183,2.249-8.086,6.432-8.717C311.682,198.354,315.461,201.035,316.288,204.981z"/>
				<path style="fill:#407BFF;" d="M298.339,184.828c12.593,0.617,16.554,9.184,22.069,26.176
					c-11.63,12.107-19.852,13.551-19.852,13.551S290.745,195.33,298.339,184.828z"/>
				<g>
					<path style="fill:#263238;" d="M236.866,415.441c9.371,0,15.251-0.145,20.516-0.322c4.509-0.161,5.587,0.402,9.21,0.322
						c3.027-0.064,2.914-2.963,1.98-6.296c-0.467-1.674-1.187-5.213-1.831-7.918l-13.729-0.997
						c-1.932,3.687-10.932,8.947-16.213,9.656C231.76,410.563,233.13,415.441,236.866,415.441z"/>
					<path style="fill:#263238;" d="M232.074,287.249c12.26-9.249,51.477-16.715,65.093-17.531
						c13.616-0.817,26.554-2.384,28.249-4.685c0,0,8.167,22.3,1.167,38.633c-5.964,13.915-38.086,10.811-68.272,10.4
						c8.151,42.065,8.772,86.411,8.772,86.411c-4.324,1.352-12.278,2.24-14.473,0.965c1.397-23.748-22.274-58.818-27.164-98.047
						C224.676,297.215,227.103,290.998,232.074,287.249z"/>
					<path style="fill:#407BFF;" d="M249.89,391.685c-0.1,2.3,1.229,6.19,0.773,9.243c-0.165,1.101,0.294,2.135,1.009,2.329
						c5.972,1.622,13.489,0.01,16.217-0.862c0.522-0.167,0.899-0.829,0.951-1.651l0.562-8.798c0.077-1.203-0.572-2.258-1.357-2.205
						l-16.876,0.097C250.497,389.844,249.935,390.647,249.89,391.685z"/>
				</g>
			</g>
		</g>
	</g>
</g>
<g id="Bag">
	<g>
		<path style="fill:#263238;" d="M315.665,419c22.055,0,58.001,1.111,72.001-0.889S378.778,390.333,379,383
			s-62.574-6.678-61.778,0.222C318.556,394.778,303.667,419,315.665,419z"/>
		<path style="fill:#263238;" d="M372.542,382.954c-0.067-0.223-6.863-22.327-22.273-25.98c-7.562-1.793-13.199,1.107-16.595,3.856
			c-6.168,4.993-10.031,13.555-9.841,21.814l-1.999,0.046c-0.204-8.856,3.95-18.047,10.581-23.415
			c5.371-4.347,11.703-5.814,18.315-4.248c16.538,3.922,23.441,26.398,23.727,27.353L372.542,382.954z"/>
		<path style="fill:#FFFFFF;" d="M357.929,388.68l-10.278,0.156c-1.475,0.022-2.837-1.151-3.027-2.606l0,0
			c-0.19-1.456,0.861-2.665,2.336-2.688l10.278-0.156c1.475-0.022,2.837,1.151,3.027,2.606l0,0
			C360.455,387.448,359.404,388.658,357.929,388.68z"/>
	</g>
</g>
</svg>
