<?xml version="1.0" encoding="utf-8"?>
<!-- Generator: Adobe Illustrator 27.5.0, SVG Export Plug-In . SVG Version: 6.00 Build 0)  -->
<svg version="1.1" xmlns="http://www.w3.org/2000/svg" xmlns:xlink="http://www.w3.org/1999/xlink" x="0px" y="0px"
	 viewBox="0 0 500 500" style="enable-background:new 0 0 500 500;" xml:space="preserve">
<g id="Background_Complete">
	<g>
		<rect x="83.654" y="142.289" style="fill:#F0F0F0;" width="99.456" height="166.273"/>
		<path style="fill:#E6E6E6;" d="M81.643,141.652v168.361h103.952V141.652H81.643z M87.146,148.175h92.945v27.313H87.146V148.175z
			 M180.091,304.446H87.146V181.195h92.945V304.446z"/>
		<polygon style="fill:#FAFAFA;" points="157.773,181.195 132.417,181.195 100.827,304.147 126.183,304.147 		"/>
		<polygon style="fill:#FAFAFA;" points="139.64,304.446 133.382,304.446 164.972,181.195 171.231,181.195 		"/>
		<polygon style="fill:#FAFAFA;" points="127.507,148.175 109.495,148.175 95.639,175.487 113.651,175.487 		"/>
		<polygon style="fill:#FAFAFA;" points="132.126,175.487 121.503,175.487 135.359,148.175 145.982,148.175 		"/>
		<g>
			<rect x="78.348" y="209.323" style="fill:#E0E0E0;" width="110.067" height="4.484"/>
			<rect x="78.348" y="217.068" style="fill:#E0E0E0;" width="110.067" height="4.484"/>
			<rect x="78.348" y="224.814" style="fill:#E0E0E0;" width="110.067" height="4.484"/>
			<rect x="78.348" y="232.559" style="fill:#E0E0E0;" width="110.067" height="4.484"/>
			<rect x="78.348" y="240.305" style="fill:#E0E0E0;" width="110.067" height="4.484"/>
			<rect x="78.348" y="201.577" style="fill:#E0E0E0;" width="110.067" height="4.484"/>
			<rect x="78.348" y="193.832" style="fill:#E0E0E0;" width="110.067" height="4.484"/>
			<rect x="78.348" y="186.086" style="fill:#E0E0E0;" width="110.067" height="4.484"/>
			<rect x="78.348" y="178.341" style="fill:#E0E0E0;" width="110.067" height="4.484"/>
			<rect x="78.348" y="170.596" style="fill:#E0E0E0;" width="110.067" height="4.484"/>
			<rect x="78.348" y="162.85" style="fill:#E0E0E0;" width="110.067" height="4.484"/>
			<rect x="78.348" y="155.105" style="fill:#E0E0E0;" width="110.067" height="4.484"/>
			<rect x="78.348" y="147.359" style="fill:#E0E0E0;" width="110.067" height="4.484"/>
			<rect x="78.348" y="139.614" style="fill:#E0E0E0;" width="110.067" height="4.484"/>
		</g>
	</g>
	<g>
		<rect y="382.398" style="fill:#EBEBEB;" width="500" height="0.25"/>
		<rect x="416.779" y="398.494" style="fill:#EBEBEB;" width="33.122" height="0.25"/>
		<rect x="322.527" y="401.208" style="fill:#EBEBEB;" width="8.693" height="0.25"/>
		<rect x="396.586" y="389.208" style="fill:#EBEBEB;" width="19.192" height="0.25"/>
		<rect x="52.459" y="390.888" style="fill:#EBEBEB;" width="43.193" height="0.25"/>
		<rect x="104.556" y="390.888" style="fill:#EBEBEB;" width="6.333" height="0.25"/>
		<rect x="131.471" y="395.111" style="fill:#EBEBEB;" width="93.676" height="0.25"/>
		<path style="fill:#EBEBEB;" d="M237.014,337.8H43.915c-3.147,0-5.708-2.561-5.708-5.708V60.66c0-3.147,2.561-5.708,5.708-5.708
			h193.099c3.146,0,5.707,2.561,5.707,5.708v271.432C242.721,335.239,240.16,337.8,237.014,337.8z M43.915,55.203
			c-3.01,0-5.458,2.448-5.458,5.458v271.432c0,3.01,2.448,5.458,5.458,5.458h193.099c3.009,0,5.457-2.448,5.457-5.458V60.66
			c0-3.009-2.448-5.458-5.457-5.458H43.915z"/>
		<path style="fill:#EBEBEB;" d="M453.31,337.8H260.212c-3.147,0-5.707-2.561-5.707-5.708V60.66c0-3.147,2.561-5.708,5.707-5.708
			H453.31c3.148,0,5.708,2.561,5.708,5.708v271.432C459.019,335.239,456.458,337.8,453.31,337.8z M260.212,55.203
			c-3.009,0-5.457,2.448-5.457,5.458v271.432c0,3.01,2.448,5.458,5.457,5.458H453.31c3.01,0,5.458-2.448,5.458-5.458V60.66
			c0-3.009-2.448-5.458-5.458-5.458H260.212z"/>
	</g>
	<g>
		
			<rect x="233.86" y="168.76" transform="matrix(-1 -1.224647e-16 1.224647e-16 -1 613.9369 551.894)" style="fill:#F0F0F0;" width="146.217" height="214.374"/>
		<g>
			
				<rect x="239.029" y="175.508" transform="matrix(-1 -1.224647e-16 1.224647e-16 -1 613.937 390.6089)" style="fill:#E0E0E0;" width="135.88" height="39.592"/>
			
				<rect x="367.19" y="181.918" transform="matrix(-1 -1.224647e-16 1.224647e-16 -1 742.0982 397.0184)" style="fill:#EBEBEB;" width="7.719" height="33.183"/>
			
				<rect x="329.866" y="181.918" transform="matrix(-1 -1.224647e-16 1.224647e-16 -1 667.4508 397.0184)" style="fill:#EBEBEB;" width="7.719" height="33.183"/>
			
				<rect x="284.62" y="181.503" transform="matrix(-0.9855 -0.1698 0.1698 -0.9855 539.1237 442.3075)" style="fill:#EBEBEB;" width="7.719" height="33.183"/>
			
				<rect x="357.625" y="186.291" transform="matrix(-1 -1.224647e-16 1.224647e-16 -1 722.9694 401.3913)" style="fill:#EBEBEB;" width="7.719" height="28.81"/>
			
				<rect x="339.883" y="186.291" transform="matrix(-1 -1.224647e-16 1.224647e-16 -1 687.4857 401.3913)" style="fill:#EBEBEB;" width="7.719" height="28.81"/>
			
				<rect x="295.101" y="186.291" transform="matrix(-1 -1.224647e-16 1.224647e-16 -1 597.921 401.3913)" style="fill:#EBEBEB;" width="7.719" height="28.81"/>
			
				<rect x="316.511" y="185.796" transform="matrix(-0.9762 -0.2169 0.2169 -0.9762 589.6886 465.1272)" style="fill:#EBEBEB;" width="7.719" height="28.81"/>
			
				<rect x="350.951" y="180.27" transform="matrix(-1 -1.224647e-16 1.224647e-16 -1 705.7608 395.371)" style="fill:#EBEBEB;" width="3.859" height="34.83"/>
			
				<rect x="305.039" y="180.27" transform="matrix(-1 -1.224647e-16 1.224647e-16 -1 613.937 395.371)" style="fill:#EBEBEB;" width="3.859" height="34.83"/>
		</g>
		<g>
			<rect x="239.029" y="221.37" style="fill:#E0E0E0;" width="135.88" height="39.592"/>
			<rect x="239.029" y="227.779" style="fill:#EBEBEB;" width="7.719" height="33.183"/>
			<rect x="276.352" y="227.779" style="fill:#EBEBEB;" width="7.719" height="33.183"/>
			
				<rect x="321.598" y="227.365" transform="matrix(0.9855 -0.1698 0.1698 0.9855 -36.7036 58.8168)" style="fill:#EBEBEB;" width="7.719" height="33.183"/>
			<rect x="248.593" y="232.152" style="fill:#EBEBEB;" width="7.719" height="28.81"/>
			<rect x="266.335" y="232.152" style="fill:#EBEBEB;" width="7.719" height="28.81"/>
			<rect x="311.117" y="232.152" style="fill:#EBEBEB;" width="7.719" height="28.81"/>
			
				<rect x="289.707" y="231.658" transform="matrix(0.9762 -0.2169 0.2169 0.9762 -46.382 69.5315)" style="fill:#EBEBEB;" width="7.719" height="28.81"/>
			<rect x="259.127" y="226.132" style="fill:#EBEBEB;" width="3.859" height="34.83"/>
			<rect x="305.039" y="226.132" style="fill:#EBEBEB;" width="3.859" height="34.83"/>
			
				<rect x="367.19" y="227.779" transform="matrix(-1 -1.224647e-16 1.224647e-16 -1 742.0982 488.7418)" style="fill:#EBEBEB;" width="7.719" height="33.183"/>
			
				<rect x="357.625" y="232.152" transform="matrix(-1 -1.224647e-16 1.224647e-16 -1 722.9694 493.1146)" style="fill:#EBEBEB;" width="7.719" height="28.81"/>
			
				<rect x="339.883" y="232.152" transform="matrix(-1 -1.224647e-16 1.224647e-16 -1 687.4857 493.1146)" style="fill:#EBEBEB;" width="7.719" height="28.81"/>
			
				<rect x="350.951" y="226.132" transform="matrix(-1 -1.224647e-16 1.224647e-16 -1 705.7608 487.0942)" style="fill:#EBEBEB;" width="3.859" height="34.83"/>
		</g>
		<g>
			
				<rect x="239.029" y="267.232" transform="matrix(-1 -1.224647e-16 1.224647e-16 -1 613.937 574.0557)" style="fill:#E0E0E0;" width="135.88" height="39.592"/>
			<g>
				
					<rect x="289.199" y="273.641" transform="matrix(-1 -1.224647e-16 1.224647e-16 -1 586.117 580.4653)" style="fill:#EBEBEB;" width="7.719" height="33.183"/>
				
					<rect x="243.953" y="273.227" transform="matrix(-0.9855 -0.1698 0.1698 -0.9855 442.8021 617.5146)" style="fill:#EBEBEB;" width="7.719" height="33.183"/>
				
					<rect x="316.958" y="278.014" transform="matrix(-1 -1.224647e-16 1.224647e-16 -1 641.6355 584.8381)" style="fill:#EBEBEB;" width="7.719" height="28.81"/>
				
					<rect x="299.216" y="278.014" transform="matrix(-1 -1.224647e-16 1.224647e-16 -1 606.1517 584.8381)" style="fill:#EBEBEB;" width="7.719" height="28.81"/>
				
					<rect x="254.434" y="278.014" transform="matrix(-1 -1.224647e-16 1.224647e-16 -1 516.5872 584.8381)" style="fill:#EBEBEB;" width="7.719" height="28.81"/>
				
					<rect x="275.844" y="277.52" transform="matrix(-0.9762 -0.2169 0.2169 -0.9762 489.4264 637.5699)" style="fill:#EBEBEB;" width="7.719" height="28.81"/>
				
					<rect x="310.284" y="271.994" transform="matrix(-1 -1.224647e-16 1.224647e-16 -1 624.4269 578.8178)" style="fill:#EBEBEB;" width="3.859" height="34.83"/>
				
					<rect x="264.372" y="271.994" transform="matrix(-1 -1.224647e-16 1.224647e-16 -1 532.6031 578.8178)" style="fill:#EBEBEB;" width="3.859" height="34.83"/>
				
					<rect x="332.757" y="273.227" transform="matrix(-0.9855 -0.1698 0.1698 -0.9855 619.1185 632.5971)" style="fill:#EBEBEB;" width="7.719" height="33.183"/>
				
					<rect x="343.237" y="278.014" transform="matrix(-1 -1.224647e-16 1.224647e-16 -1 694.1938 584.8381)" style="fill:#EBEBEB;" width="7.719" height="28.81"/>
				
					<rect x="364.647" y="277.52" transform="matrix(-0.9762 -0.2169 0.2169 -0.9762 664.9188 656.8322)" style="fill:#EBEBEB;" width="7.719" height="28.81"/>
				
					<rect x="353.175" y="271.994" transform="matrix(-1 -1.224647e-16 1.224647e-16 -1 710.2097 578.8178)" style="fill:#EBEBEB;" width="3.859" height="34.83"/>
			</g>
		</g>
		<rect x="380.077" y="168.76" style="fill:#E0E0E0;" width="25.225" height="214.935"/>
	</g>
	<g>
		<g>
			
				<rect x="345.735" y="87.158" transform="matrix(-1.836970e-16 1 -1 -1.836970e-16 465.4839 -252.9766)" style="fill:#F0F0F0;" width="26.99" height="38.192"/>
			
				<rect x="347.495" y="88.954" transform="matrix(-1.836970e-16 1 -1 -1.836970e-16 465.4839 -252.9765)" style="fill:#FAFAFA;" width="23.47" height="34.599"/>
		</g>
		<g>
			
				<rect x="332.492" y="121.064" transform="matrix(-1.836970e-16 1 -1 -1.836970e-16 486.146 -205.8268)" style="fill:#F0F0F0;" width="26.99" height="38.191"/>
			
				<rect x="334.251" y="122.86" transform="matrix(-1.836970e-16 1 -1 -1.836970e-16 486.1459 -205.8269)" style="fill:#FAFAFA;" width="23.47" height="34.599"/>
		</g>
		<g>
			
				<rect x="308.589" y="85.361" transform="matrix(-1 -1.224647e-16 1.224647e-16 -1 641.4788 205.1097)" style="fill:#F0F0F0;" width="24.301" height="34.387"/>
			
				<rect x="310.173" y="86.978" transform="matrix(-1 -1.224647e-16 1.224647e-16 -1 641.4787 205.1097)" style="fill:#FAFAFA;" width="21.132" height="31.153"/>
		</g>
		<g>
			
				<rect x="294.764" y="126.665" transform="matrix(-1 -1.224647e-16 1.224647e-16 -1 616.517 291.5208)" style="fill:#F0F0F0;" width="26.99" height="38.191"/>
			
				<rect x="296.523" y="128.461" transform="matrix(-1 -1.224647e-16 1.224647e-16 -1 616.5168 291.521)" style="fill:#FAFAFA;" width="23.47" height="34.599"/>
		</g>
		<g>
			
				<rect x="274.82" y="94.231" transform="matrix(6.123234e-17 -1 1 6.123234e-17 176.2043 394.5688)" style="fill:#F0F0F0;" width="21.132" height="29.903"/>
			
				<rect x="276.198" y="95.637" transform="matrix(6.123234e-17 -1 1 6.123234e-17 176.2043 394.5688)" style="fill:#FAFAFA;" width="18.377" height="27.091"/>
		</g>
	</g>
</g>
<g id="Background_Simple" style="display:none;">
	<g style="display:inline;">
		<path style="fill:#407BFF;" d="M249.732,103.387c-74.558,35.448-8.31,95.436-51.569,129.378
			c-43.259,33.941-158.871-2.645-115.915,83.006c50.458,100.609,278.553,82.873,329.622-42.339
			C462.94,148.219,324.29,67.939,249.732,103.387z"/>
		<path style="opacity:0.9;fill:#FFFFFF;" d="M249.732,103.387c-74.558,35.448-8.31,95.436-51.569,129.378
			c-43.259,33.941-158.871-2.645-115.915,83.006c50.458,100.609,278.553,82.873,329.622-42.339
			C462.94,148.219,324.29,67.939,249.732,103.387z"/>
	</g>
</g>
<g id="Shadow_1_">
	<ellipse id="_x3C_Path_x3E__359_" style="fill:#F5F5F5;" cx="250" cy="416.238" rx="193.889" ry="11.323"/>
</g>
<g id="Character">
	<g>
		<g>
			<polygon style="fill:#E4897B;" points="166.229,226.626 185.31,209.096 171.773,201.474 152.685,213.807 			"/>
			<g>
				<path style="fill:#407BFF;" d="M223.046,268.13c-13.596-1.174-73.46-9.076-75.708-13.565
					c3.512-3.897,32.314-35.255,32.314-35.255l-14.487-16.363c0,0-71.683,35.965-59.467,58.622
					c12.215,22.657,120.553,47.649,120.553,47.649L223.046,268.13z"/>
				<path style="opacity:0.2;" d="M147.338,254.565l-5.618,6.83l20.075-2.207C154.511,257.572,148.649,256.367,147.338,254.565z"/>
			</g>
		</g>
		<path style="fill:#263238;" d="M237.397,399.652c-26.677-78.757-24.743-126.826-14.351-131.522c0,0,24.191-11.672,26.099-12.262
			c12.349-3.831,32.968-10.154,47.614-10.16c29.589-0.012,35.656,4.291,35.656,4.291c2.507,26.056,6.133,41.156,9.934,63.637
			c2.792,16.445,6.141,31.942,9.515,45.9c3.357,13.909,8.087,29.795,10.982,40.116H237.397z"/>
		<path style="fill:#407BFF;" d="M305.332,246.172c-1.425,15.963-2.527,32.793-7.236,39.929c0,0-13.305,18.788-29.991,24.075
			c-16.919,5.36-26.334-9.9-28.889-16.425c-2.935-7.263-1.119-20.588,1.6-34.131c2.317-1.423,6.202-2.647,8.329-3.751
			c13.91-4.682,28.17-8.263,43.026-9.973C296.207,245.552,300.6,245.652,305.332,246.172z"/>
		<g>
			<path style="fill:#E4897B;" d="M290.19,248.918c0,0-21.196,25.488-28.878,27.026c-5.382,1.081-15.027-6.064-15.027-6.064
				c3.493-2.834,5.742-5.677,6.966-8.485c3.766-8.413-1.189-16.614-7.232-23.795l15.739-35.766
				c1.637,6.144,4.221,14.18,7.646,21.887c0.006,0.029,0.006,0.029,0.006,0.029C274.498,235.29,281.526,246.115,290.19,248.918z"/>
			<path style="opacity:0.2;" d="M269.405,223.721c0.006,0.029,0.006,0.029,0.006,0.029c0.553,14.049-2.049,30.951-16.16,37.645
				c3.766-8.413-1.189-16.614-7.232-23.795l15.739-35.766C263.395,207.979,265.98,216.015,269.405,223.721z"/>
		</g>
		<g>
			<path style="fill:#263238;" d="M197.447,194.203c0.909,8.457,8.867,23.169,17.083,13.665
				C222.747,198.364,195.885,179.667,197.447,194.203z"/>
			<path style="fill:#E4897B;" d="M218.507,233.709c0.511,0.573,1.033,1.135,1.544,1.667c13.839,14.35,38.294,11.353,46.159-6.628
				c0.604-1.371,1.105-2.833,1.504-4.388c3.692-14.503-2.813-24.915-12.305-43.52c-9.502-18.615-35.256-21.939-48.552-4.827
				C193.888,192.715,205.65,219.329,218.507,233.709z"/>
			<path style="fill:#263238;" d="M258.64,156.395l-22.633,5.33l3.059,12.99c0.355-0.361,0.765-0.728,1.092-1.085
				c0,0,6.745,18.32,19.249,21.687C270.755,180.145,269.858,160.882,258.64,156.395z"/>
			<path style="fill:#E4897B;" d="M272.283,190.669c1.293,5.471-0.083,11.013-2.601,14.884c-3.788,5.824-10.319,3.555-13.149-2.402
				c-2.548-5.362-3.647-14.854,2.023-18.612C264.143,180.837,270.805,184.414,272.283,190.669z"/>
			<path style="fill:#DE5753;" d="M219.987,208.98c0,0,1.361,10.107-0.034,16.2c3.921,0.801,7.698-2.864,7.698-2.864L219.987,208.98
				z"/>
			<path style="fill:#263238;" d="M242.016,224.108c0.704,0.012,1.44,0.072,2.21,0.19c0.273,0.041,0.463,0.296,0.423,0.568
				c-0.038,0.275-0.297,0.46-0.563,0.419c-7.389-1.118-11.563,3.505-11.605,3.553c-0.181,0.206-0.497,0.222-0.703,0.04
				c-0.208-0.185-0.229-0.5-0.047-0.707C231.897,227.984,235.497,223.995,242.016,224.108z"/>
			<path style="fill:#263238;" d="M231.171,194.245c-0.289,0.194-0.673,0.232-1.01,0.065c-4.012-1.979-7.211-0.164-7.244-0.146
				c-0.476,0.278-1.092,0.119-1.374-0.354c-0.282-0.473-0.122-1.083,0.351-1.36c0.168-0.099,4.177-2.374,9.153,0.081
				c0.497,0.245,0.702,0.842,0.456,1.333C231.425,194.025,231.309,194.153,231.171,194.245z"/>
			<path style="fill:#263238;" d="M204.894,210.813c-0.15,0.116-0.335,0.191-0.54,0.206c-0.552,0.04-1.035-0.37-1.078-0.917
				c-0.433-5.492,3.216-8.279,3.363-8.425c0.439-0.332,1.069-0.249,1.407,0.188c0.337,0.435,0.256,1.054-0.177,1.388
				c-0.157,0.11-2.94,2.294-2.593,6.701C205.303,210.299,205.149,210.615,204.894,210.813z"/>
			<path style="fill:#263238;" d="M267.325,168.882c-1.029-8.085,0.771-13.335-12.872-19.066c-14.036-5.895-22.432-2.82-22.432-2.82
				s-34.421,9.791-38.7,21.9c-4.684,13.257-6.927,34.003,2.475,34.05c9.402,0.046,13.991-8.732,18-14.088
				c4.05-5.412,10.006-13.003,10.006-13.003c7.272,3.021,8.672,3.607,15.012,4.76c4.226,0.769,7.088-1.327,8.527-2.811
				c0.72-0.742,1.084-1.331,1.084-1.331L267.325,168.882z"/>
			<g>
				<path style="opacity:0.2;" d="M221.485,188.074c0,0,2.297-0.634,2.775-2.924c0.478-2.29-2.296-3.72-2.296-3.72
					s3.879,2.099,3.288,3.85C224.661,187.03,221.485,188.074,221.485,188.074z"/>
				<path style="opacity:0.2;" d="M223.441,179.746c0,0,0.634,2.297,2.924,2.775c2.29,0.478,3.72-2.296,3.72-2.296
					s-2.099,3.879-3.85,3.288C224.485,182.922,223.441,179.746,223.441,179.746z"/>
				<path style="opacity:0.2;" d="M231.528,181.466c0,0-2.297,0.634-2.775,2.924c-0.478,2.29,2.296,3.72,2.296,3.72
					s-3.879-2.099-3.288-3.85C228.351,182.51,231.528,181.466,231.528,181.466z"/>
				<path style="opacity:0.2;" d="M229.572,189.794c0,0-0.634-2.297-2.924-2.775c-2.29-0.478-3.72,2.296-3.72,2.296
					s2.099-3.879,3.85-3.288C228.528,186.617,229.572,189.794,229.572,189.794z"/>
			</g>
			<g>
				<path style="fill:#263238;" d="M230.692,197.516c-3.443,0-6.244,2.801-6.244,6.243c0,2.92,2.376,5.296,5.296,5.296
					s5.296-2.375,5.296-5.296c0-2.398-1.951-4.348-4.348-4.348c-2.398,0-4.348,1.95-4.348,4.348c0,1.875,1.526,3.4,3.401,3.4
					c1.875,0,3.4-1.525,3.4-3.4c0-1.353-1.1-2.453-2.452-2.453c-1.353,0-2.453,1.1-2.453,2.453c0,0.829,0.675,1.505,1.505,1.505
					c0.829,0,1.505-0.675,1.505-1.505c0-0.246-0.199-0.445-0.445-0.445h-0.224c-0.246,0-0.445,0.199-0.445,0.445
					c0,0.215-0.175,0.39-0.39,0.39c-0.216,0-0.391-0.175-0.391-0.39c0-0.738,0.6-1.338,1.338-1.338c0.738,0,1.338,0.6,1.338,1.338
					c0,1.26-1.025,2.286-2.286,2.286c-1.26,0-2.285-1.025-2.285-2.286c0-1.783,1.45-3.233,3.233-3.233
					c1.783,0,3.233,1.45,3.233,3.233c0,2.305-1.876,4.18-4.181,4.18c-2.305,0-4.181-1.875-4.181-4.18
					c0-2.828,2.301-5.129,5.129-5.129c2.827,0,5.128,2.301,5.128,5.129c0,0.246,0.199,0.445,0.445,0.445h0.224
					c0.246,0,0.445-0.199,0.445-0.445C236.934,200.316,234.134,197.516,230.692,197.516z"/>
				<path style="fill:#263238;" d="M212.117,208.407c-3.442,0-6.243,2.801-6.243,6.243c0,2.92,2.375,5.296,5.296,5.296
					c2.92,0,5.296-2.375,5.296-5.296c0-2.398-1.951-4.348-4.348-4.348c-2.397,0-4.348,1.951-4.348,4.348c0,1.875,1.525,3.4,3.4,3.4
					c1.875,0,3.401-1.525,3.401-3.4c0-1.353-1.1-2.453-2.453-2.453c-1.352,0-2.452,1.1-2.452,2.453c0,0.829,0.675,1.505,1.505,1.505
					c0.83,0,1.505-0.675,1.505-1.505c0-0.246-0.199-0.445-0.445-0.445h-0.224c-0.246,0-0.445,0.199-0.445,0.445
					c0,0.215-0.175,0.39-0.391,0.39c-0.215,0-0.39-0.175-0.39-0.39c0-0.738,0.6-1.338,1.338-1.338c0.738,0,1.338,0.6,1.338,1.338
					c0,1.26-1.025,2.285-2.286,2.285c-1.26,0-2.285-1.025-2.285-2.285c0-1.783,1.45-3.233,3.233-3.233
					c1.783,0,3.233,1.45,3.233,3.233c0,2.305-1.876,4.18-4.181,4.18c-2.305,0-4.18-1.875-4.18-4.18c0-2.828,2.301-5.129,5.128-5.129
					c2.828,0,5.129,2.301,5.129,5.129c0,0.246,0.199,0.445,0.445,0.445h0.224c0.246,0,0.445-0.199,0.445-0.445
					C218.361,211.208,215.56,208.407,212.117,208.407z"/>
			</g>
		</g>
		<path style="fill:#E4897B;" d="M172.227,205.141l13.433,4.098c14.726-0.974,10.199-19.69,10.199-19.69l1.458-9.879
			c0.494-3.349-1.881-6.663-5.611-7.832l-9.37-2.937c-4.271-1.339-8.754,0.595-9.94,4.286l-2.663,8.296
			c-0.775,2.414-0.94,4.983-0.482,7.476L172.227,205.141z"/>
		<g>
			<path style="fill:#407BFF;" d="M272.386,276.16l-7.026,9.09l9.124,22.102c-3.576,1.922-6.977,3.218-10.163,3.752
				c-3.003,0.51-5.943,0.48-8.775-0.449l3.695-24.681l-7.88-7.374l9.559-2.544L272.386,276.16z"/>
			<path style="opacity:0.5;fill:#FFFFFF;" d="M272.386,276.16l-7.026,9.09l9.124,22.102c-3.576,1.922-6.977,3.218-10.163,3.752
				c-3.003,0.51-5.943,0.48-8.775-0.449l3.695-24.681l-7.88-7.374l9.559-2.544L272.386,276.16z"/>
			<polygon style="fill:#263238;" points="259.242,285.974 262.923,285.413 268.277,281.761 272.386,276.16 258.01,284.822 			"/>
			<polygon style="fill:#263238;" points="255.114,282.112 264.329,276.087 260.92,276.056 258.01,276.83 252.891,280.031 			"/>
			<polygon style="fill:#263238;" points="264.198,285.413 257.968,294.483 256.91,301.55 266.629,288.325 265.36,285.25 			"/>
			<path style="fill:#263238;" d="M255.751,309.287l13.116-15.542l1.462,3.541l-12.238,13.962c-0.871-0.116-1.723-0.328-2.544-0.592
				L255.751,309.287z"/>
			<path style="fill:#263238;" d="M271.668,300.529l-8.305,10.719c1.703-0.223,3.341-0.613,4.92-1.156l4.91-5.871L271.668,300.529z"
				/>
		</g>
		<g>
			<g>
				<path style="fill:#263238;" d="M253.385,287.437c2.168-8.346,7.927-11.486,7.927-11.486c-5.82-4.449-6.699-13.48-6.669-18.779
					v-0.102c0.01-0.204,0.01-0.399,0.01-0.593c0-1.258-0.112-2.393-0.225-3.191c-1.279,0.654-5.063,2.823-8.407,6.781
					C244.404,263.156,245.437,285.443,253.385,287.437z"/>
			</g>
			<g>
				<path style="fill:#263238;" d="M261.306,275.952c0,0,7.394,4.325,15.651,8.275c7.316-7.483,23.936-26.492,19.152-37.189
					c-2.318-2.801-11.419-1.968-11.419-1.968S279.579,260.09,261.306,275.952z"/>
			</g>
			<g style="opacity:0.2;">
				<g>
					<path style="fill:#FFFFFF;" d="M261.306,275.952c0,0,7.394,4.325,15.651,8.275c7.316-7.483,23.936-26.492,19.152-37.189
						c-2.318-2.801-11.419-1.968-11.419-1.968S279.579,260.09,261.306,275.952z"/>
				</g>
				<g>
					<path style="fill:#FFFFFF;" d="M253.385,287.437c2.168-8.346,7.927-11.486,7.927-11.486c-5.82-4.449-6.699-13.48-6.669-18.779
						v-0.102c0.01-0.204,0.01-0.399,0.01-0.593c0-1.258-0.112-2.393-0.225-3.191c-1.279,0.654-5.063,2.823-8.407,6.781
						C244.404,263.156,245.437,285.443,253.385,287.437z"/>
				</g>
			</g>
		</g>
		<polygon style="opacity:0.3;fill:#FFFFFF;" points="226.25,362.505 242.438,377.655 252.628,358.391 270.753,372.152 
			280.229,352.484 297.003,365.743 306.944,346.155 325.285,358.28 332.621,340.565 350.836,354.765 351.981,361.261 
			333.682,347.257 326.655,365.008 308.459,353.073 298.633,372.478 280.763,358.522 272.293,378.348 253.722,363.478 
			243.72,382.546 227.651,367.79 		"/>
		<g>
			<g>
				<path style="fill:#E4897B;" d="M290.726,375.848l3.404,13.626c-1.728,14.656-20.186,9.176-20.186,9.176l-9.94,0.95
					c-3.37,0.322-6.558-2.22-7.534-6.005l-2.453-9.508c-1.119-4.334,1.042-8.712,4.79-9.707l8.422-2.234
					c2.451-0.65,5.024-0.684,7.491-0.098L290.726,375.848z"/>
				<polygon style="fill:#E4897B;" points="289.115,375.465 310.242,368.826 315.198,385.642 293.788,391.375 				"/>
			</g>
			<g>
				<path style="fill:#407BFF;" d="M328.998,248.658c-15.769-2.765-9.365,33.038,1.07,47.255c6.094,9.078,8.562,11.19,12.282,17.724
					c13.231,23.241,14.96,32.169,14.96,32.169c-5.329,3.513-66.247,25.824-66.247,25.824l8.295,23.963
					c0,0,90.962-13.743,91.922-42.45c0.815-24.362-8.361-42.677-25.458-68.917C345.711,253.364,338.886,250.391,328.998,248.658z"/>
				<path style="opacity:0.2;" d="M357.31,345.807l13.063-5.676l-20.415-12.291C354.45,336.823,355.894,339.739,357.31,345.807z"/>
			</g>
		</g>
	</g>
</g>
<g id="Doodles">
	<g>
		<g>
			<path style="fill:#407BFF;" d="M319.125,143.824c-3.858,0-6.48-2.247-6.844-5.864c-0.104-2.291,0.053-5.124,2.192-6.816
				c1.074-0.85,2.502-1.032,3.729-0.48c1.223,0.552,1.997,1.733,2.073,3.159c0.104,1.958-0.29,3.485-1.11,4.303
				c-0.449,0.448-1.019,0.665-1.65,0.632c-1.733-0.097-2.207-0.873-2.386-2.009c-0.065-1.146,0.327-1.955,1.164-2.429l0.246,0.436
				c-0.676,0.382-0.966,0.999-0.913,1.94c0.126,0.793,0.359,1.477,1.918,1.564c0.485,0.032,0.917-0.136,1.269-0.487
				c0.707-0.705,1.059-2.135,0.964-3.922c-0.066-1.254-0.715-2.248-1.779-2.729c-1.056-0.477-2.287-0.317-3.212,0.415
				c-1.961,1.553-2.102,4.23-2.004,6.389c0.336,3.326,2.767,5.4,6.346,5.4c1.335,0,2.703-0.837,3.851-2.358
				c1.813-2.401,2.535-5.76,1.795-8.359c-0.758-2.662-3.326-6.154-6.77-7.68c-2.26-1.002-4.553-0.987-6.629,0.04
				c-5.661,2.801-5.12,7.707-3.996,12.914l-0.488,0.105c-0.883-4.086-2.216-10.262,4.262-13.468c2.214-1.096,4.652-1.113,7.054-0.05
				c3.215,1.424,6.113,4.714,7.048,8.001c0.78,2.742,0.026,6.277-1.877,8.797C322.13,142.916,320.621,143.824,319.125,143.824z"/>
		</g>
		<g>
			<path style="fill:#407BFF;" d="M215.819,104.194c-2.52,0-4.915-0.923-6.794-2.628c-1.612-1.463-2.558-3.467-2.663-5.641
				c-0.105-2.174,0.643-4.26,2.106-5.871c1.18-1.3,2.794-2.062,4.547-2.147c1.764-0.085,3.434,0.518,4.734,1.698
				c2.167,1.967,2.329,5.329,0.362,7.496c-1.592,1.754-4.314,1.884-6.067,0.293c-1.392-1.263-1.501-3.518-0.239-4.923
				c0.558-0.621,1.229-0.968,1.94-1.004c0.71-0.042,1.456,0.251,2.071,0.81c0.459,0.416,0.728,0.987,0.758,1.606
				c0.03,0.619-0.183,1.213-0.6,1.672c-0.342,0.377-0.811,0.599-1.32,0.623c-0.512,0.027-0.997-0.15-1.374-0.493
				c-0.643-0.584-0.691-1.582-0.107-2.225l0.37,0.336c-0.398,0.439-0.366,1.121,0.073,1.519c0.574,0.521,1.466,0.479,1.988-0.096
				c0.327-0.36,0.494-0.826,0.47-1.312c-0.023-0.486-0.235-0.934-0.595-1.26c-0.517-0.468-1.118-0.707-1.71-0.68
				c-0.576,0.029-1.127,0.319-1.594,0.839c-1.082,1.205-0.989,3.137,0.203,4.219c1.551,1.406,3.955,1.29,5.361-0.259
				c1.781-1.962,1.634-5.008-0.328-6.79c-2.479-2.25-6.326-2.063-8.575,0.415c-1.374,1.513-2.075,3.47-1.977,5.512
				c0.099,2.041,0.986,3.921,2.499,5.295c1.904,1.729,4.376,2.61,6.935,2.487c2.568-0.124,4.935-1.241,6.663-3.145l0.37,0.336
				c-1.818,2.003-4.307,3.178-7.008,3.309C216.152,104.19,215.985,104.194,215.819,104.194z"/>
		</g>
		<g>
			<path style="fill:#407BFF;" d="M242.82,139.193l1.531-5.382l-5.055-3.38l6.115-0.347l0.892-3.135l1.352,3.008l4.982-0.283
				l-3.558,3.45l2.475,5.504l-4.825-3.226L242.82,139.193z M244.788,134.104l-0.977,3.432l2.494-2.417L244.788,134.104z
				 M247.097,135.046l3.287,2.198l-1.686-3.75L247.097,135.046z M244.932,133.598l1.74,1.164l1.808-1.753l-1.139-2.533l-1.546,0.088
				L244.932,133.598z M240.816,130.846l3.679,2.46l0.772-2.713L240.816,130.846z M247.876,130.445l0.986,2.193l2.464-2.389
				L247.876,130.445z M246.41,128.404l-0.469,1.65l1.181-0.067L246.41,128.404z"/>
		</g>
		<g>
			<path style="fill:#407BFF;" d="M143.122,157.068l0.063-5.595l-5.765-1.933l5.808-1.942l0.037-3.26l2.095,2.546l4.732-1.582
				l-2.525,4.263l3.835,4.661l-5.503-1.845L143.122,157.068z M143.682,151.64l-0.04,3.568l1.771-2.988L143.682,151.64z
				 M146.158,151.942l3.749,1.256l-2.613-3.175L146.158,151.942z M143.688,151.115l1.985,0.665l1.284-2.167l-1.765-2.145
				l-1.468,0.491L143.688,151.115z M138.994,149.542l4.196,1.406l0.031-2.82L138.994,149.542z M145.699,147.299l1.528,1.857
				l1.749-2.953L145.699,147.299z M143.748,145.715l-0.019,1.716l1.122-0.375L143.748,145.715z"/>
		</g>
		<g>
			<path style="fill:#407BFF;" d="M286.786,204.065l-2.36-5.302l-5.33,1.121l4.166-3.735l-2.472-5.555l5.357,2.968l2.427-2.176
				l-0.46,3.266l4.364,2.418l-4.85,1.02L286.786,204.065z M284.927,198.657l1.607,3.613l0.575-4.072L284.927,198.657z
				 M283.477,196.628l-2.657,2.382l3.399-0.715L283.477,196.628z M283.868,196.277l0.851,1.913l2.464-0.518l0.388-2.751
				l-1.354-0.751L283.868,196.277z M288.039,195.181l-0.336,2.381l3.359-0.706L288.039,195.181z M281.855,191.754l1.799,4.043
				l2.1-1.883L281.855,191.754z M286.611,193.818l1.035,0.573l0.243-1.719L286.611,193.818z"/>
		</g>
		<path style="fill:#407BFF;" d="M290.899,146.943c-3.427-2.532-7.201-5.041-11.248-7.506c3.515-3.178,6.754-6.347,9.648-9.475
			c12.721-13.751,17.527-25.133,13.535-32.048c-3.992-6.914-16.251-8.442-34.521-4.302c-14.819,3.359-32.2,10.114-49.923,19.33
			c-19.131-5.742-37.468-9.13-52.655-9.661c-18.715-0.646-30.479,3.136-33.11,10.677c-2.63,7.539,4.219,17.822,19.285,28.954
			c3.427,2.532,7.201,5.041,11.248,7.506c-3.515,3.178-6.754,6.347-9.648,9.475c-12.721,13.751-17.527,25.132-13.535,32.048
			c2.49,4.313,8.316,6.592,16.851,6.592c5.023,0,10.969-0.77,17.671-2.29c14.82-3.359,32.201-10.114,49.922-19.329
			c19.131,5.742,37.469,9.13,52.655,9.661c1.379,0.048,2.746,0.073,4.063,0.073c16.314,0,26.629-3.818,29.047-10.75
			C312.814,168.358,305.965,158.075,290.899,146.943z M277.109,185.575c-14.846-0.518-32.731-3.787-51.427-9.327
			c3.486-1.834,6.982-3.752,10.474-5.768c16.33-9.428,31.065-19.919,42.726-30.34c4.116,2.498,7.948,5.042,11.423,7.609
			c14.684,10.849,21.408,20.729,18.934,27.82C306.764,182.664,295.363,186.224,277.109,185.575z M161.706,104.213
			c15.351,0,35.001,3.372,55.41,9.401c-3.483,1.833-6.976,3.749-10.464,5.763c-16.338,9.433-31.079,19.929-42.743,30.356
			c-21.285-12.875-33.543-26.262-30.34-35.445C135.835,107.791,145.828,104.213,161.706,104.213z M164.792,150.265
			c11.292-10.032,25.805-20.464,42.36-30.022c3.776-2.18,7.559-4.255,11.323-6.217c4.089,1.229,8.202,2.554,12.317,3.989
			c17.633,6.151,33.915,13.619,47.212,21.587c-11.29,10.029-25.799,20.456-42.348,30.012c-3.781,2.183-7.567,4.256-11.339,6.224
			c-4.073-1.229-8.18-2.558-12.301-3.996C193.967,165.545,177.759,158.009,164.792,150.265z M231.122,117.07
			c-3.805-1.327-7.595-2.558-11.361-3.708c25.501-13.134,50.06-21.028,66.208-21.028c8.169,0,13.701,2.102,15.998,6.08
			c4.863,8.422-4.684,23.864-23.186,40.488C265.375,130.84,248.934,123.284,231.122,117.07z M211.686,172.786
			c3.806,1.328,7.599,2.559,11.367,3.709c-17.332,8.937-34.29,15.49-48.778,18.773c-17.805,4.035-29.679,2.676-33.434-3.827
			c-4.862-8.422,4.684-23.864,23.187-40.488C177.433,159.015,193.875,166.572,211.686,172.786z"/>
		<polygon style="fill:#407BFF;" points="141.108,110.5 154.16,122.606 156.74,120.797 167.443,127.733 155.923,114.584 
			152.704,117.546 		"/>
		<polygon style="fill:#407BFF;" points="306.14,207.658 319.192,219.765 321.772,217.956 332.475,224.892 320.956,211.743 
			317.736,214.705 		"/>
		<polygon style="fill:#407BFF;" points="329.016,102.486 315.964,114.593 313.384,112.784 302.68,119.719 314.2,106.571 
			317.419,109.533 		"/>
		<polygon style="fill:#407BFF;" points="154.276,202.27 141.223,214.376 138.644,212.567 127.94,219.503 139.46,206.354 
			142.679,209.316 		"/>
	</g>
</g>
<g id="Table">
	<g>
		<rect x="80.03" y="399.652" style="fill:#407BFF;" width="338.976" height="15.803"/>
		<rect x="80.03" y="399.652" style="opacity:0.2;fill:#FAFAFA;" width="338.976" height="15.803"/>
		<path style="fill:#407BFF;" d="M424.074,399.652H75.926c-2.182,0-3.951,1.769-3.951,3.951l0,0c0,2.182,1.769,3.951,3.951,3.951
			h348.148c2.182,0,3.951-1.769,3.951-3.951l0,0C428.025,401.421,426.256,399.652,424.074,399.652z"/>
		<path style="opacity:0.4;fill:#FAFAFA;" d="M424.074,399.652H75.926c-2.182,0-3.951,1.769-3.951,3.951l0,0
			c0,2.182,1.769,3.951,3.951,3.951h348.148c2.182,0,3.951-1.769,3.951-3.951l0,0C428.025,401.421,426.256,399.652,424.074,399.652z
			"/>
	</g>
</g>
<g id="Drink">
	<g>
		<g>
			<path style="fill:#407BFF;" d="M164.813,399.45l-21.682,0.029l-0.008-6.528c0.144-6.252-1.88-16.123-3.648-25.565
				c-1.51-3.671,0.219-14.565,1.368-24.167l26.81-0.035c1.175,9.327,3.008,19.807,1.353,24.163
				c-2.256,10.067-4.641,20.364-4.201,25.576L164.813,399.45z"/>
			<path style="opacity:0.6;fill:#FFFFFF;" d="M164.813,399.45l-21.682,0.029l-0.008-6.528c0.144-6.252-1.88-16.123-3.648-25.565
				c-1.51-3.671,0.219-14.565,1.368-24.167l26.81-0.035c1.175,9.327,3.008,19.807,1.353,24.163
				c-2.256,10.067-4.641,20.364-4.201,25.576L164.813,399.45z"/>
			<path style="opacity:0.7;fill:#407BFF;" d="M163.579,397.801l-19.136,0.025l-0.008-5.761c0.127-5.518-1.659-14.23-3.218-22.564
				c-0.812-4.211-0.845-6.975,0.168-15.45l25.756-0.034c1.037,8.232,1.023,9.993,0.139,15.45
				c-1.991,8.885-4.096,17.973-3.709,22.573L163.579,397.801z"/>
			<polygon style="opacity:0.5;fill:#FFFFFF;" points="141.385,354.05 167.141,354.017 166.021,343.186 142.604,343.217 			"/>
		</g>
		<g>
			<path style="fill:#407BFF;" d="M148.287,357.424c0,0.541-0.438,0.979-0.979,0.979s-0.979-0.438-0.979-0.979
				c0-0.541,0.438-0.979,0.979-0.979S148.287,356.884,148.287,357.424z"/>
			<path style="opacity:0.4;fill:#FFFFFF;" d="M148.287,357.424c0,0.541-0.438,0.979-0.979,0.979s-0.979-0.438-0.979-0.979
				c0-0.541,0.438-0.979,0.979-0.979S148.287,356.884,148.287,357.424z"/>
		</g>
		<g>
			<circle style="fill:#407BFF;" cx="153.284" cy="364.552" r="0.979"/>
			<circle style="opacity:0.4;fill:#FFFFFF;" cx="153.284" cy="364.552" r="0.979"/>
		</g>
		<g>
			<path style="fill:#407BFF;" d="M165.361,355.665c0,0.541-0.438,0.979-0.979,0.979c-0.541,0-0.979-0.438-0.979-0.979
				c0-0.541,0.438-0.979,0.979-0.979C164.922,354.686,165.361,355.124,165.361,355.665z"/>
			<path style="opacity:0.4;fill:#FFFFFF;" d="M165.361,355.665c0,0.541-0.438,0.979-0.979,0.979c-0.541,0-0.979-0.438-0.979-0.979
				c0-0.541,0.438-0.979,0.979-0.979C164.922,354.686,165.361,355.124,165.361,355.665z"/>
		</g>
		<g>
			<path style="fill:#407BFF;" d="M155.53,356.446c0,0.541-0.438,0.979-0.979,0.979c-0.541,0-0.979-0.438-0.979-0.979
				c0-0.541,0.438-0.979,0.979-0.979C155.092,355.467,155.53,355.905,155.53,356.446z"/>
			<path style="opacity:0.4;fill:#FFFFFF;" d="M155.53,356.446c0,0.541-0.438,0.979-0.979,0.979c-0.541,0-0.979-0.438-0.979-0.979
				c0-0.541,0.438-0.979,0.979-0.979C155.092,355.467,155.53,355.905,155.53,356.446z"/>
		</g>
		<g>
			<path style="fill:#407BFF;" d="M143.76,363.111c0,0.541-0.438,0.979-0.979,0.979s-0.979-0.438-0.979-0.979
				s0.438-0.979,0.979-0.979S143.76,362.571,143.76,363.111z"/>
			<path style="opacity:0.4;fill:#FFFFFF;" d="M143.76,363.111c0,0.541-0.438,0.979-0.979,0.979s-0.979-0.438-0.979-0.979
				s0.438-0.979,0.979-0.979S143.76,362.571,143.76,363.111z"/>
		</g>
		<g>
			<path style="fill:#407BFF;" d="M162.976,367.099c0,0.541-0.438,0.979-0.979,0.979c-0.541,0-0.979-0.438-0.979-0.979
				c0-0.541,0.438-0.979,0.979-0.979C162.538,366.12,162.976,366.558,162.976,367.099z"/>
			<path style="opacity:0.4;fill:#FFFFFF;" d="M162.976,367.099c0,0.541-0.438,0.979-0.979,0.979c-0.541,0-0.979-0.438-0.979-0.979
				c0-0.541,0.438-0.979,0.979-0.979C162.538,366.12,162.976,366.558,162.976,367.099z"/>
		</g>
		<g>
			<path style="fill:#407BFF;" d="M147.308,371.332c0,0.541-0.438,0.979-0.979,0.979c-0.541,0-0.979-0.438-0.979-0.979
				c0-0.541,0.438-0.979,0.979-0.979C146.87,370.353,147.308,370.791,147.308,371.332z"/>
			<path style="opacity:0.4;fill:#FFFFFF;" d="M147.308,371.332c0,0.541-0.438,0.979-0.979,0.979c-0.541,0-0.979-0.438-0.979-0.979
				c0-0.541,0.438-0.979,0.979-0.979C146.87,370.353,147.308,370.791,147.308,371.332z"/>
		</g>
		<g>
			<path style="fill:#407BFF;" d="M147.095,365.755c0,0.339-0.275,0.614-0.614,0.614c-0.339,0-0.614-0.275-0.614-0.614
				c0-0.339,0.275-0.614,0.614-0.614C146.82,365.141,147.095,365.416,147.095,365.755z"/>
			<path style="opacity:0.4;fill:#FFFFFF;" d="M147.095,365.755c0,0.339-0.275,0.614-0.614,0.614c-0.339,0-0.614-0.275-0.614-0.614
				c0-0.339,0.275-0.614,0.614-0.614C146.82,365.141,147.095,365.416,147.095,365.755z"/>
		</g>
		<g>
			<path style="fill:#407BFF;" d="M147.709,362.497c0,0.339-0.275,0.614-0.614,0.614c-0.339,0-0.614-0.275-0.614-0.614
				c0-0.339,0.275-0.614,0.614-0.614C147.434,361.883,147.709,362.158,147.709,362.497z"/>
			<path style="opacity:0.4;fill:#FFFFFF;" d="M147.709,362.497c0,0.339-0.275,0.614-0.614,0.614c-0.339,0-0.614-0.275-0.614-0.614
				c0-0.339,0.275-0.614,0.614-0.614C147.434,361.883,147.709,362.158,147.709,362.497z"/>
		</g>
		<g>
			<path style="fill:#407BFF;" d="M151.255,360.133c0,0.339-0.275,0.614-0.614,0.614c-0.339,0-0.614-0.275-0.614-0.614
				c0-0.339,0.275-0.614,0.614-0.614C150.98,359.519,151.255,359.794,151.255,360.133z"/>
			<path style="opacity:0.4;fill:#FFFFFF;" d="M151.255,360.133c0,0.339-0.275,0.614-0.614,0.614c-0.339,0-0.614-0.275-0.614-0.614
				c0-0.339,0.275-0.614,0.614-0.614C150.98,359.519,151.255,359.794,151.255,360.133z"/>
		</g>
		<g>
			<path style="fill:#407BFF;" d="M159.47,370.353c0,0.339-0.275,0.614-0.614,0.614c-0.339,0-0.614-0.275-0.614-0.614
				c0-0.339,0.275-0.614,0.614-0.614C159.195,369.739,159.47,370.014,159.47,370.353z"/>
			<path style="opacity:0.4;fill:#FFFFFF;" d="M159.47,370.353c0,0.339-0.275,0.614-0.614,0.614c-0.339,0-0.614-0.275-0.614-0.614
				c0-0.339,0.275-0.614,0.614-0.614C159.195,369.739,159.47,370.014,159.47,370.353z"/>
		</g>
		<g>
			<path style="fill:#407BFF;" d="M162.612,375.921c0,0.339-0.275,0.614-0.614,0.614c-0.339,0-0.614-0.275-0.614-0.614
				s0.275-0.614,0.614-0.614C162.337,375.307,162.612,375.582,162.612,375.921z"/>
			<path style="opacity:0.4;fill:#FFFFFF;" d="M162.612,375.921c0,0.339-0.275,0.614-0.614,0.614c-0.339,0-0.614-0.275-0.614-0.614
				s0.275-0.614,0.614-0.614C162.337,375.307,162.612,375.582,162.612,375.921z"/>
		</g>
		<g>
			<path style="fill:#407BFF;" d="M163.226,359.017c0,0.339-0.275,0.614-0.614,0.614c-0.339,0-0.614-0.275-0.614-0.614
				c0-0.339,0.275-0.614,0.614-0.614C162.951,358.403,163.226,358.678,163.226,359.017z"/>
			<path style="opacity:0.4;fill:#FFFFFF;" d="M163.226,359.017c0,0.339-0.275,0.614-0.614,0.614c-0.339,0-0.614-0.275-0.614-0.614
				c0-0.339,0.275-0.614,0.614-0.614C162.951,358.403,163.226,358.678,163.226,359.017z"/>
		</g>
		<g>
			<g>
				<circle style="fill:#407BFF;" cx="140.616" cy="342.154" r="1.031"/>
				<circle style="opacity:0.4;fill:#FFFFFF;" cx="140.616" cy="342.154" r="1.031"/>
			</g>
			<g>
				<circle style="fill:#407BFF;" cx="143.846" cy="339.079" r="1.031"/>
				<circle style="opacity:0.4;fill:#FFFFFF;" cx="143.846" cy="339.079" r="1.031"/>
			</g>
			<g>
				<circle style="fill:#407BFF;" cx="145.437" cy="338.869" r="0.821"/>
				<circle style="opacity:0.4;fill:#FFFFFF;" cx="145.437" cy="338.869" r="0.821"/>
			</g>
			<g>
				<circle style="fill:#407BFF;" cx="149.61" cy="339.689" r="1.031"/>
				<circle style="opacity:0.4;fill:#FFFFFF;" cx="149.61" cy="339.689" r="1.031"/>
			</g>
			<g>
				<circle style="fill:#407BFF;" cx="153.929" cy="341.123" r="1.031"/>
				<circle style="opacity:0.4;fill:#FFFFFF;" cx="153.929" cy="341.123" r="1.031"/>
			</g>
			<g>
				<circle style="fill:#407BFF;" cx="162.243" cy="339.079" r="1.031"/>
				<circle style="opacity:0.4;fill:#FFFFFF;" cx="162.243" cy="339.079" r="1.031"/>
			</g>
			<g>
				<path style="fill:#407BFF;" d="M144.617,341.349c0,1.014-0.822,1.836-1.835,1.836c-1.014,0-1.835-0.822-1.835-1.836
					s0.822-1.835,1.835-1.835C143.795,339.513,144.617,340.335,144.617,341.349z"/>
				<path style="opacity:0.4;fill:#FFFFFF;" d="M144.617,341.349c0,1.014-0.822,1.836-1.835,1.836c-1.014,0-1.835-0.822-1.835-1.836
					s0.822-1.835,1.835-1.835C143.795,339.513,144.617,340.335,144.617,341.349z"/>
			</g>
			<g>
				<path style="fill:#407BFF;" d="M149.401,338.658c0,1.014-0.822,1.835-1.835,1.835c-1.014,0-1.835-0.822-1.835-1.835
					c0-1.014,0.822-1.835,1.835-1.835C148.58,336.823,149.401,337.645,149.401,338.658z"/>
				<path style="opacity:0.4;fill:#FFFFFF;" d="M149.401,338.658c0,1.014-0.822,1.835-1.835,1.835c-1.014,0-1.835-0.822-1.835-1.835
					c0-1.014,0.822-1.835,1.835-1.835C148.58,336.823,149.401,337.645,149.401,338.658z"/>
			</g>
			<g>
				<path style="fill:#407BFF;" d="M153.781,339.513c0,1.014-0.822,1.835-1.835,1.835c-1.014,0-1.836-0.822-1.836-1.835
					c0-1.014,0.822-1.835,1.836-1.835C152.959,337.678,153.781,338.5,153.781,339.513z"/>
				<path style="opacity:0.4;fill:#FFFFFF;" d="M153.781,339.513c0,1.014-0.822,1.835-1.835,1.835c-1.014,0-1.836-0.822-1.836-1.835
					c0-1.014,0.822-1.835,1.836-1.835C152.959,337.678,153.781,338.5,153.781,339.513z"/>
			</g>
			<g>
				<path style="fill:#407BFF;" d="M158.222,340.494c0,1.014-0.822,1.836-1.835,1.836c-1.014,0-1.836-0.822-1.836-1.836
					c0-1.014,0.822-1.835,1.836-1.835C157.4,338.658,158.222,339.48,158.222,340.494z"/>
				<path style="opacity:0.4;fill:#FFFFFF;" d="M158.222,340.494c0,1.014-0.822,1.836-1.835,1.836c-1.014,0-1.836-0.822-1.836-1.836
					c0-1.014,0.822-1.835,1.836-1.835C157.4,338.658,158.222,339.48,158.222,340.494z"/>
			</g>
			<g>
				<path style="fill:#407BFF;" d="M161.648,340.494c0,1.014-0.822,1.836-1.835,1.836s-1.835-0.822-1.835-1.836
					c0-1.014,0.822-1.835,1.835-1.835S161.648,339.48,161.648,340.494z"/>
				<path style="opacity:0.4;fill:#FFFFFF;" d="M161.648,340.494c0,1.014-0.822,1.836-1.835,1.836s-1.835-0.822-1.835-1.836
					c0-1.014,0.822-1.835,1.835-1.835S161.648,339.48,161.648,340.494z"/>
			</g>
			<g>
				<path style="fill:#407BFF;" d="M166.217,340.109c0,1.014-0.822,1.836-1.835,1.836c-1.014,0-1.836-0.822-1.836-1.836
					s0.822-1.835,1.836-1.835C165.395,338.274,166.217,339.096,166.217,340.109z"/>
				<path style="opacity:0.4;fill:#FFFFFF;" d="M166.217,340.109c0,1.014-0.822,1.836-1.835,1.836c-1.014,0-1.836-0.822-1.836-1.836
					s0.822-1.835,1.836-1.835C165.395,338.274,166.217,339.096,166.217,340.109z"/>
			</g>
			<g>
				<path style="fill:#407BFF;" d="M168.976,341.349c0,1.014-0.822,1.836-1.835,1.836c-1.014,0-1.835-0.822-1.835-1.836
					s0.822-1.835,1.835-1.835C168.155,339.513,168.976,340.335,168.976,341.349z"/>
				<path style="opacity:0.4;fill:#FFFFFF;" d="M168.976,341.349c0,1.014-0.822,1.836-1.835,1.836c-1.014,0-1.835-0.822-1.835-1.836
					s0.822-1.835,1.835-1.835C168.155,339.513,168.976,340.335,168.976,341.349z"/>
			</g>
			<g>
				<polygon style="fill:#407BFF;" points="140.843,343.219 167.653,343.184 167.551,340.916 162.546,339.079 158.888,340.494 
					153.572,340.916 151.346,339.513 147.566,338.658 144.043,339.079 				"/>
				<polygon style="opacity:0.4;fill:#FFFFFF;" points="140.843,343.219 167.653,343.184 167.551,340.916 162.546,339.079 
					158.888,340.494 153.572,340.916 151.346,339.513 147.566,338.658 144.043,339.079 				"/>
			</g>
		</g>
	</g>
</g>
</svg>
